<svg width="18" height="14" viewBox="0 0 18 14" fill="none" xmlns="http://www.w3.org/2000/svg">
<path d="M17.1826 7.10505C17.1826 6.83259 17.0683 6.56892 16.8662 6.37556L11.0918 0.601119C10.8633 0.381392 10.626 0.284711 10.3799 0.28471C9.81738 0.284708 9.41308 0.680214 9.41308 1.21635C9.41308 1.4976 9.52734 1.7349 9.70312 1.91068L11.6806 3.9146L14.2295 6.24371L12.1904 6.12066L1.53806 6.12061C0.949194 6.12061 0.544895 6.5249 0.544893 7.10498C0.54489 7.67627 0.949185 8.08057 1.53805 8.08057L12.1904 8.08062L14.2295 7.95758L11.6806 10.2867L9.70307 12.2906C9.52729 12.4663 9.41303 12.7037 9.41303 12.9849C9.41303 13.521 9.81732 13.9165 10.3798 13.9165C10.6259 13.9165 10.8632 13.8199 11.0742 13.6177L16.8662 7.82575C17.0683 7.6324 17.1826 7.36872 17.1826 7.10505Z" fill="#0C8E88"/>
</svg>
