<svg width="19" height="19" viewBox="0 0 19 19" fill="none" xmlns="http://www.w3.org/2000/svg">
<path d="M18.0405 9.50057C18.0405 11.8875 17.0923 14.1767 15.4044 15.8645C13.7166 17.5523 11.4274 18.5005 9.04045 18.5005C6.6535 18.5005 4.36432 17.5523 2.6765 15.8645C0.98868 14.1766 0.0404785 11.8874 0.0404887 9.50049C0.040499 7.11354 0.988721 4.82436 2.67656 3.13654C4.36439 1.44872 6.65358 0.500517 9.04053 0.500527C11.4275 0.500537 13.7167 1.44876 15.4045 3.13659C17.0923 4.82443 18.0405 7.11362 18.0405 9.50057ZM13.5743 6.0918C13.4939 6.01172 13.3982 5.94867 13.2929 5.90641C13.1876 5.86416 13.0749 5.84357 12.9615 5.84588C12.8481 5.84819 12.7363 5.87335 12.6328 5.91986C12.5293 5.96636 12.4363 6.03326 12.3593 6.11654L8.45211 11.0946L6.09749 8.73889C5.93755 8.58985 5.72599 8.50871 5.50741 8.51257C5.28882 8.51642 5.08026 8.60497 4.92567 8.75956C4.77108 8.91415 4.68253 9.12271 4.67867 9.3413C4.67481 9.55988 4.75595 9.77144 4.90499 9.93138L7.88172 12.9093C7.96192 12.9893 8.05741 13.0524 8.16251 13.0947C8.2676 13.1371 8.38015 13.1578 8.49344 13.1557C8.60672 13.1536 8.71843 13.1287 8.82188 13.0825C8.92534 13.0363 9.01843 12.9697 9.0956 12.8868L13.5866 7.27305C13.7397 7.11386 13.8243 6.90098 13.8222 6.68013C13.8201 6.45927 13.7315 6.24804 13.5754 6.0918L13.5743 6.0918Z" fill="#0C8E88"/>
</svg>
