<svg width="45" height="26" viewBox="0 0 45 26" fill="none" xmlns="http://www.w3.org/2000/svg">
<path d="M15.8783 23.9266C15.727 23.9266 15.5805 23.9022 15.4486 23.8533L15.6635 25.3524L16.9476 25.3524L16.1908 23.8924C16.0883 23.9168 15.9857 23.9266 15.8783 23.9266ZM36.435 9.70792C35.8198 9.70791 35.2241 9.78115 34.6528 9.91299C33.6079 8.03798 31.6108 6.77333 29.3159 6.77332C28.979 6.77332 28.6518 6.80261 28.3296 6.85144C26.6011 3.07213 22.7925 0.450047 18.3735 0.450028C12.8901 0.450005 8.3491 4.48319 7.55318 9.74686C3.59322 10.1326 0.502386 13.4675 0.502368 17.53C0.50235 21.8464 3.99843 25.3474 8.31483 25.3523L10.7562 25.3523L11.4008 24.0047C10.1215 23.5994 9.28653 22.5887 9.49161 21.6219C9.71622 20.5672 11.0932 19.9666 12.5727 20.2791C13.6908 20.5184 14.5453 21.2117 14.7943 21.993C14.908 21.8087 15.0667 21.6564 15.2555 21.5505C15.4443 21.4446 15.657 21.3885 15.8734 21.3875L15.8832 21.3875C15.8441 21.2313 15.8246 21.0701 15.8246 20.9041C15.8246 19.9227 16.5473 19.1121 17.4897 18.9705L17.4897 17.7303C17.4897 17.5155 17.6655 17.3397 17.8803 17.3397C18.0951 17.3397 18.2709 17.5155 18.2709 17.7303L18.2709 19.0145C18.4955 19.0731 18.7006 19.1707 18.8861 19.2977L19.8383 18.2528C19.9848 18.0916 20.2289 18.0819 20.3901 18.2284C20.5512 18.3748 20.561 18.619 20.4145 18.7801L19.4379 19.8543L19.4281 19.8641C19.645 20.2063 19.7501 20.6076 19.7288 21.0122C19.7075 21.4168 19.5609 21.8048 19.3093 22.1224C19.0577 22.4399 18.7135 22.6714 18.3245 22.7847C17.9355 22.898 17.5209 22.8875 17.1381 22.7547C17.1186 23.0281 17.0111 23.2772 16.8451 23.4774L17.8217 25.3524L36.6351 25.3524L36.6351 25.3476C40.8588 25.2402 44.2523 21.7831 44.2524 17.5302C44.2524 13.2089 40.7514 9.70794 36.435 9.70792ZM13.891 23.8875L13.681 25.3524L14.8725 25.3524L14.5844 23.326C14.4135 23.5506 14.1791 23.741 13.891 23.8875ZM36.3179 2.78409C36.3179 3.40569 36.5648 4.00183 37.0043 4.44137C37.4439 4.88091 38.04 5.12785 38.6616 5.12785C39.2832 5.12785 39.8793 4.88092 40.3189 4.44139C40.7584 4.00185 41.0054 3.40571 41.0054 2.78411C41.0054 2.16251 40.7584 1.56636 40.3189 1.12682C39.8794 0.687284 39.2832 0.440352 38.6616 0.440349C38.04 0.440347 37.4439 0.687274 37.0043 1.12681C36.5648 1.56635 36.3179 2.16249 36.3179 2.78409ZM33.1098 5.77724C33.1098 5.93113 33.1402 6.08352 33.199 6.2257C33.2579 6.36788 33.3443 6.49706 33.4531 6.60588C33.5619 6.7147 33.6911 6.80102 33.8333 6.85991C33.9754 6.91881 34.1278 6.94912 34.2817 6.94912C34.4356 6.94912 34.588 6.91881 34.7302 6.85992C34.8723 6.80103 35.0015 6.71471 35.1104 6.60589C35.2192 6.49707 35.3055 6.36788 35.3644 6.22571C35.4233 6.08353 35.4536 5.93114 35.4536 5.77725C35.4536 5.62336 35.4233 5.47097 35.3644 5.32879C35.3055 5.18661 35.2192 5.05743 35.1104 4.94861C35.0015 4.83979 34.8724 4.75347 34.7302 4.69458C34.588 4.63568 34.4356 4.60537 34.2817 4.60537C34.1278 4.60537 33.9754 4.63568 33.8333 4.69457C33.6911 4.75346 33.5619 4.83978 33.4531 4.9486C33.3443 5.05742 33.2579 5.1866 33.199 5.32878C33.1402 5.47096 33.1098 5.62335 33.1098 5.77724ZM12.1918 24.1658L11.6254 25.3523L12.8949 25.3523L13.0658 24.1463C12.7875 24.1854 12.4945 24.1951 12.1918 24.1658Z" fill="#18191F"/>
</svg>
