<svg width="46" height="46" viewBox="0 0 46 46" fill="none" xmlns="http://www.w3.org/2000/svg">
<rect x="0.366211" y="0.479492" width="45" height="45" rx="22.5" fill="#0C8E88" fill-opacity="0.16"/>
<g clip-path="url(#clip0_2_8414)">
<path d="M26.6162 21.7296L30.3662 21.7296L28.4912 19.2296L26.6162 21.7296ZM26.6162 24.2296L30.3662 24.2296L28.4912 26.7296L26.6162 24.2296Z" fill="#D6B1FF"/>
<path d="M15.9912 15.4796L19.7412 15.4796L19.7411 30.4796L15.9911 30.4796C15.8254 30.4796 15.6664 30.4138 15.5492 30.2966C15.432 30.1794 15.3661 30.0204 15.3661 29.8546L15.3662 16.1046C15.3662 15.9389 15.4321 15.7799 15.5493 15.6627C15.6665 15.5455 15.8255 15.4796 15.9912 15.4796Z" fill="#0C8E88"/>
<path d="M20.9912 15.4796L24.7412 15.4796C24.907 15.4796 25.0659 15.5455 25.1832 15.6627C25.3004 15.7799 25.3662 15.9389 25.3662 16.1046L25.3662 29.8546C25.3661 30.0204 25.3003 30.1794 25.1831 30.2966C25.0659 30.4138 24.9069 30.4796 24.7411 30.4796L20.9911 30.4796L20.9912 15.4796Z" fill="#2EC5CE"/>
</g>
<defs>
<clipPath id="clip0_2_8414">
<rect width="15" height="15" fill="white" transform="translate(15.3662 15.4796)"/>
</clipPath>
</defs>
</svg>
