<svg width="51" height="26" viewBox="0 0 51 26" fill="none" xmlns="http://www.w3.org/2000/svg">
<path d="M37.8692 25.63C34.6175 25.6338 31.4932 24.3666 29.1629 22.0988L29.1567 22.0925C28.8873 21.8901 28.5984 21.7153 28.2942 21.5706C27.3783 21.1455 26.3788 20.9309 25.3692 20.9425C24.0754 20.9425 23.0911 21.2644 22.4473 21.5706C22.142 21.7151 21.852 21.8899 21.5817 22.0925L21.5754 22.0987C20.1061 23.5252 18.3088 24.5687 16.3416 25.1377C14.3744 25.7067 12.2975 25.7837 10.2936 25.3619C8.28969 24.94 6.4201 24.0323 4.84922 22.7186C3.27835 21.4048 2.05431 19.7252 1.28473 17.8275C0.515146 15.9297 0.223599 13.872 0.435719 11.8352C0.64784 9.79833 1.35713 7.84482 2.50123 6.14638C3.64532 4.44794 5.18918 3.05661 6.99705 2.09471C8.80492 1.13281 10.8214 0.629808 12.8693 0.629936L37.8693 0.630044C41.1845 0.630058 44.3639 1.94703 46.7081 4.29125C49.0523 6.63546 50.3692 9.81489 50.3692 13.1301C50.3692 16.4453 49.0522 19.6247 46.708 21.9689C44.3638 24.3131 41.1844 25.6301 37.8692 25.63Z" fill="#18191F"/>
</svg>
