<svg width="14" height="14" viewBox="0 0 14 14" fill="none" xmlns="http://www.w3.org/2000/svg">
<path fill-rule="evenodd" clip-rule="evenodd" d="M7.00119 0.612088C5.26303 0.612081 5.0449 0.61968 4.36223 0.650744C3.68088 0.681941 3.21581 0.789807 2.80887 0.948074C2.38794 1.11154 2.03086 1.33021 1.67513 1.68608C1.31912 2.04181 1.10045 2.39888 0.936447 2.81968C0.777777 3.22675 0.669773 3.69196 0.639104 4.37303C0.608567 5.05571 0.600566 5.27398 0.600558 7.01213C0.600551 8.75028 0.608284 8.96775 0.639214 9.65042C0.670545 10.3318 0.778411 10.7968 0.936544 11.2038C1.10014 11.6247 1.31881 11.9818 1.67468 12.3375C2.03028 12.6935 2.38735 12.9127 2.80802 13.0762C3.21523 13.2345 3.68043 13.3423 4.36164 13.3735C5.04431 13.4046 5.26231 13.4122 7.00033 13.4122C8.73862 13.4122 8.95609 13.4046 9.63876 13.3736C10.3201 13.3424 10.7857 13.2345 11.1929 13.0762C11.6137 12.9128 11.9703 12.6936 12.3259 12.3376C12.6819 11.9818 12.9005 11.6248 13.0645 11.204C13.2219 10.7969 13.3299 10.3317 13.3619 9.65061C13.3926 8.96794 13.4006 8.75033 13.4006 7.01218C13.4006 5.27403 13.3926 5.05589 13.3619 4.37322C13.3299 3.69188 13.2219 3.22681 13.0646 2.81987C12.9006 2.39893 12.6819 2.04186 12.3259 1.68612C11.9699 1.33012 11.6139 1.11145 11.1926 0.948109C10.7846 0.789839 10.3192 0.68197 9.63788 0.650766C8.95521 0.619696 8.73787 0.612095 6.99919 0.612088L7.00119 0.612088ZM6.42701 1.76541C6.59742 1.76515 6.78755 1.76541 7.00115 1.76542C8.70997 1.76542 8.91251 1.77156 9.58731 1.80223C10.2113 1.83076 10.55 1.93503 10.7756 2.02263C11.0743 2.13864 11.2872 2.27731 11.5111 2.50131C11.7351 2.72531 11.8737 2.93865 11.99 3.23732C12.0776 3.46265 12.182 3.80133 12.2104 4.42533C12.2411 5.10001 12.2477 5.30268 12.2477 7.01069C12.2477 8.71871 12.241 8.92138 12.2104 9.59605C12.1818 10.2201 12.0776 10.5587 11.99 10.7841C11.874 11.0827 11.735 11.2954 11.511 11.5193C11.287 11.7433 11.0744 11.8819 10.7755 11.9979C10.5502 12.0859 10.2113 12.1899 9.58727 12.2185C8.9126 12.2491 8.70993 12.2558 7.00111 12.2558C5.29216 12.2558 5.08962 12.2491 4.41495 12.2184C3.79094 12.1896 3.45227 12.0854 3.22654 11.9978C2.92787 11.8818 2.71453 11.7431 2.49053 11.5191C2.26653 11.2951 2.12786 11.0823 2.0116 10.7835C1.924 10.5582 1.8196 10.2195 1.7912 9.59548C1.76054 8.9208 1.7544 8.71813 1.75441 7.00905C1.75442 5.29996 1.76055 5.09836 1.79122 4.42369C1.81976 3.79968 1.92403 3.46101 2.01163 3.23541C2.12763 2.93674 2.26657 2.7234 2.49057 2.4994C2.71457 2.2754 2.92791 2.13674 3.22658 2.02047C3.45218 1.93247 3.79099 1.82847 4.41499 1.7998C5.0054 1.77314 5.2342 1.76514 6.42701 1.76381L6.42701 1.76541ZM10.4175 2.82811C9.99345 2.82811 9.64945 3.17171 9.64944 3.59585C9.64944 4.01985 9.99344 4.36386 10.4174 4.36386C10.8415 4.36386 11.1855 4.01986 11.1855 3.59585C11.1855 3.17185 10.8415 2.82811 10.4175 2.82811ZM7.00118 3.72544C5.1861 3.72543 3.71448 5.19704 3.71447 7.01212C3.71446 8.82721 5.18607 10.2982 7.00116 10.2982C8.81624 10.2982 10.2873 8.82724 10.2873 7.01215C10.2873 5.19707 8.81627 3.72544 7.00118 3.72544ZM7.00115 4.87878C8.1793 4.87879 9.1345 5.83387 9.1345 7.01215C9.13449 8.19029 8.17928 9.1455 7.00114 9.14549C5.82286 9.14549 4.86778 8.19027 4.86779 7.01213C4.86779 5.83385 5.82287 4.87878 7.00115 4.87878Z" fill="white"/>
</svg>
