<svg width="20" height="20" viewBox="0 0 20 20" fill="none" xmlns="http://www.w3.org/2000/svg">
<path d="M19.321 10.1935C19.321 12.6461 18.3467 14.9984 16.6123 16.7327C14.878 18.4669 12.5258 19.4413 10.0731 19.4412C7.62045 19.4412 5.26823 18.4669 3.53394 16.7326C1.79964 14.9983 0.825328 12.6461 0.825339 10.1934C0.825349 7.74071 1.79968 5.38849 3.53399 3.65419C5.2683 1.9199 7.62053 0.945586 10.0732 0.945596C12.5259 0.945607 14.8781 1.91994 16.6124 3.65425C18.3467 5.38856 19.321 7.74079 19.321 10.1935ZM14.7318 6.69083C14.6492 6.60854 14.5509 6.54376 14.4427 6.50034C14.3345 6.45692 14.2187 6.43577 14.1021 6.43814C13.9856 6.44052 13.8707 6.46637 13.7644 6.51415C13.6581 6.56194 13.5625 6.63068 13.4833 6.71625L9.46858 11.8314L7.04913 9.41081C6.88478 9.25767 6.6674 9.17429 6.44279 9.17826C6.21819 9.18222 6.00388 9.27321 5.84504 9.43205C5.68619 9.5909 5.5952 9.8052 5.59124 10.0298C5.58727 10.2544 5.67064 10.4718 5.82379 10.6361L8.88249 13.696C8.96489 13.7783 9.06301 13.8431 9.17101 13.8866C9.279 13.9301 9.39465 13.9514 9.51105 13.9493C9.62746 13.9471 9.74223 13.9215 9.84854 13.874C9.95484 13.8266 10.0505 13.7582 10.1298 13.6729L14.7445 7.90461C14.9018 7.74103 14.9887 7.5223 14.9866 7.29536C14.9844 7.06842 14.8933 6.85137 14.7329 6.69083L14.7318 6.69083Z" fill="#0C8E88" fill-opacity="0.76"/>
</svg>
