<svg width="39" height="50" viewBox="0 0 39 50" fill="none" xmlns="http://www.w3.org/2000/svg">
<path d="M23.7511 0.195166L7.21045 0.195095C5.55285 0.195088 3.96313 0.853562 2.79102 2.02566C1.61892 3.19776 0.96043 4.78747 0.960422 6.44507L0.960262 43.9451C0.960254 45.6027 1.61873 47.1924 2.79083 48.3645C3.96292 49.5366 5.55263 50.1951 7.21023 50.1951L32.2102 50.1952C33.8678 50.1952 35.4576 49.5367 36.6297 48.3646C37.8018 47.1925 38.4603 45.6028 38.4603 43.9452L38.4604 14.9046C38.4602 14.0759 38.1309 13.2811 37.5448 12.6952L25.9604 1.1108C25.3745 0.524706 24.5798 0.195347 23.7511 0.195166V0.195166ZM24.3979 11.1327L24.3979 4.88267L33.7729 14.2577L27.5229 14.2577C26.6941 14.2577 25.8992 13.9284 25.3132 13.3424C24.7271 12.7563 24.3979 11.9615 24.3979 11.1327ZM15.4791 24.0889C15.6244 23.9436 15.7968 23.8284 15.9866 23.7497C16.1765 23.6711 16.3799 23.6307 16.5853 23.6307C16.7908 23.6307 16.9942 23.6711 17.184 23.7498C17.3739 23.8284 17.5463 23.9436 17.6916 24.0889C17.8369 24.2342 17.9521 24.4066 18.0307 24.5964C18.1094 24.7863 18.1498 24.9897 18.1498 25.1951C18.1498 25.4006 18.1093 25.604 18.0307 25.7938C17.9521 25.9837 17.8369 26.1561 17.6916 26.3014L12.5447 31.4451L17.6915 36.5889C17.9849 36.8823 18.1498 37.2802 18.1498 37.6951C18.1498 38.1101 17.9849 38.508 17.6915 38.8014C17.3981 39.0948 17.0002 39.2596 16.5853 39.2596C16.1704 39.2596 15.7724 39.0948 15.479 38.8014L9.22906 32.5514C9.08355 32.4062 8.9681 32.2338 8.88934 32.044C8.81057 31.8541 8.77002 31.6506 8.77002 31.4451C8.77002 31.2396 8.81057 31.0361 8.88934 30.8462C8.96811 30.6564 9.08356 30.484 9.22907 30.3389L15.4791 24.0889ZM23.9416 24.0889L30.1916 30.3389C30.3371 30.4841 30.4525 30.6565 30.5313 30.8463C30.6101 31.0362 30.6506 31.2397 30.6506 31.4452C30.6506 31.6507 30.6101 31.8542 30.5313 32.044C30.4525 32.2339 30.3371 32.4063 30.1916 32.5514L23.9415 38.8014C23.6481 39.0948 23.2502 39.2596 22.8353 39.2596C22.4204 39.2596 22.0224 39.0948 21.729 38.8014C21.4356 38.508 21.2708 38.1101 21.2708 37.6952C21.2708 37.2802 21.4356 36.8823 21.729 36.5889L26.8759 31.4452L21.7291 26.3014C21.5838 26.1561 21.4686 25.9837 21.39 25.7939C21.3113 25.604 21.2709 25.4006 21.2709 25.1952C21.2709 24.9897 21.3113 24.7863 21.39 24.5965C21.4686 24.4066 21.5838 24.2342 21.7291 24.0889C21.8744 23.9436 22.0468 23.8284 22.2366 23.7498C22.4265 23.6712 22.6299 23.6307 22.8353 23.6307C23.0408 23.6307 23.2442 23.6712 23.434 23.7498C23.6239 23.8284 23.7963 23.9436 23.9416 24.0889Z" fill="#18191F"/>
</svg>
