<svg width="39" height="42" viewBox="0 0 39 42" fill="none" xmlns="http://www.w3.org/2000/svg">
<path d="M37.3375 9.76772L20.4626 0.392644C20.1775 0.228077 19.8542 0.141439 19.5251 0.141438C19.196 0.141436 18.8726 0.228072 18.5876 0.392636L1.71254 9.76756C1.42676 9.93866 1.19128 10.1823 1.02994 10.4737C0.868593 10.7651 0.787127 11.0939 0.793787 11.4269L0.793706 30.1676C0.796138 30.5017 0.887806 30.8291 1.05922 31.1159C1.23064 31.4027 1.47558 31.6384 1.7687 31.7988L18.6437 41.1739C18.9176 41.3326 19.2271 41.4197 19.5437 41.427C19.8659 41.4187 20.1813 41.3318 20.4624 41.1739L37.3374 31.799C37.6267 31.6382 37.8679 31.4031 38.036 31.118C38.204 30.8329 38.293 30.5081 38.2937 30.1771L38.2938 11.4271C38.2967 11.0904 38.2095 10.7591 38.0414 10.4673C37.8733 10.1756 37.6303 9.93406 37.3375 9.76772ZM17.6687 36.3551L4.54371 29.0613L4.54377 14.5863L17.6687 21.8801L17.6687 36.3551ZM19.5438 18.6364L6.53129 11.427L19.5438 4.18014L32.5563 11.4177L19.5438 18.6364ZM34.5437 29.0615L21.4187 36.3551L21.4187 21.8801L34.5438 14.5865L34.5437 29.0615Z" fill="black"/>
</svg>
