<svg width="12" height="10" viewBox="0 0 12 10" fill="none" xmlns="http://www.w3.org/2000/svg">
<path fill-rule="evenodd" clip-rule="evenodd" d="M5.64108 2.76593L5.66626 3.18116L5.24657 3.13031C3.71891 2.9354 2.38431 2.27443 1.25115 1.16432L0.697168 0.61351L0.554472 1.02026C0.252294 1.92698 0.445346 2.88455 1.07487 3.52858C1.41062 3.88449 1.33508 3.93533 0.755911 3.72348C0.554461 3.65568 0.378193 3.60484 0.361405 3.63026C0.302648 3.68958 0.504095 4.46072 0.663575 4.76578C0.881811 5.18948 1.32668 5.60471 1.81351 5.85046L2.22481 6.04536L1.73797 6.05384C1.26792 6.05383 1.25113 6.06231 1.30149 6.24026C1.46937 6.79108 2.13247 7.37579 2.87112 7.63001L3.39153 7.80797L2.93827 8.07913C2.26677 8.46894 1.47775 8.68926 0.68874 8.7062C0.311021 8.71467 0.00045167 8.74857 0.000451561 8.77399C0.000451198 8.85873 1.02449 9.33328 1.62044 9.51971C3.40831 10.0705 5.53193 9.83327 7.12675 8.89266C8.25991 8.22321 9.39307 6.8928 9.92188 5.60475C10.2073 4.91835 10.4927 3.6642 10.4927 3.06254C10.4927 2.67274 10.5179 2.6219 10.9879 2.15583C11.2649 1.88466 11.5251 1.58807 11.5755 1.50333C11.6594 1.34232 11.651 1.34232 11.2229 1.48638C10.5095 1.7406 10.4087 1.7067 10.7613 1.32537C11.0215 1.0542 11.3321 0.562711 11.3321 0.418653C11.3321 0.393231 11.2061 0.435601 11.0635 0.511866C10.9124 0.596606 10.5766 0.723715 10.3248 0.79998L9.87154 0.944036L9.46025 0.664392C9.23362 0.511858 8.91465 0.342376 8.74678 0.291532C8.3187 0.172893 7.66398 0.189839 7.27787 0.325421C6.22865 0.706748 5.56554 1.68973 5.64108 2.76593Z" fill="white"/>
</svg>
