<svg width="14" height="14" viewBox="0 0 14 14" fill="none" xmlns="http://www.w3.org/2000/svg">
<path fill-rule="evenodd" clip-rule="evenodd" d="M13.4006 7.00349C13.4006 7.43631 13.3565 7.86852 13.2699 8.28984C13.1855 8.70114 13.0605 9.10495 12.8968 9.49096C12.7368 9.87015 12.5383 10.2356 12.3064 10.5763C12.078 10.9149 11.8149 11.2326 11.5258 11.5222C11.2361 11.8105 10.9173 12.073 10.5789 12.3024C10.237 12.5326 9.87103 12.7308 9.49162 12.8915C9.10504 13.0544 8.7003 13.1792 8.28935 13.2635C7.86748 13.3503 7.43369 13.3946 7.00024 13.3946C6.56647 13.3946 6.1327 13.3503 5.71143 13.2635C5.29986 13.1792 4.89515 13.0544 4.50887 12.8915C4.12949 12.7308 3.7632 12.5326 3.42132 12.3023C3.08287 12.073 2.7641 11.8105 2.47502 11.5222C2.18565 11.2326 1.92249 10.9149 1.69374 10.5763C1.4631 10.2355 1.26433 9.87008 1.10371 9.49091C0.93993 9.10489 0.814631 8.70106 0.729938 8.28978C0.644318 7.86847 0.600557 7.43625 0.600559 7.00343C0.60056 6.57029 0.6443 6.13714 0.729974 5.71676C0.81467 5.30545 0.939973 4.90102 1.10375 4.51563C1.26438 4.13617 1.46315 3.77044 1.69379 3.42965C1.92255 3.09076 2.18571 2.77368 2.47509 2.48377C2.76417 2.19541 3.08293 1.93361 3.42139 1.70456C3.76328 1.4733 4.12956 1.27517 4.50895 1.11413C4.89522 0.950889 5.29991 0.82577 5.71151 0.74215C6.13278 0.656028 6.56655 0.61233 7.00032 0.612332C7.43377 0.612334 7.86754 0.656035 8.28943 0.742161C8.70038 0.82581 9.10509 0.950932 9.49169 1.11415C9.87108 1.27517 10.237 1.47333 10.5789 1.70459C10.9174 1.93364 11.2362 2.19544 11.5258 2.48381C11.8149 2.77372 12.0781 3.0908 12.3065 3.42969C12.5384 3.77049 12.7368 4.13624 12.8968 4.51568C13.0606 4.90108 13.1856 5.3055 13.27 5.71681C13.3565 6.1372 13.4006 6.57034 13.4006 7.00349ZM4.66827 2.06686C3.14411 2.78556 2.00655 4.18797 1.65183 5.87812C1.79592 5.87937 4.07353 5.90809 6.69773 5.21186C5.75176 3.53356 4.74109 2.16394 4.66827 2.06686ZM7.15055 6.05229C4.33635 6.89358 1.63589 6.83303 1.53902 6.82931C1.53744 6.88797 1.53463 6.94475 1.53463 7.00343C1.53463 8.40552 2.06434 9.68374 2.935 10.6502C2.93312 10.6474 4.42886 7.99768 7.37838 7.04528C7.44962 7.02157 7.52214 7.00033 7.59401 6.97974C7.45684 6.66957 7.30712 6.35874 7.15055 6.05229ZM10.6098 2.90729C9.64758 2.06001 8.3841 1.54606 7.00028 1.54605C6.55618 1.54605 6.12522 1.59973 5.71239 1.69896C5.79426 1.80882 6.82088 3.16879 7.7556 4.88264C9.81792 4.11061 10.5964 2.92725 10.6098 2.90729ZM7.96657 7.88411C7.9544 7.88814 7.94222 7.89161 7.93033 7.89596C4.70552 9.01854 3.65241 11.2809 3.64101 11.3056C4.56889 12.0261 5.7327 12.4609 7.00027 12.4609C7.75716 12.4609 8.47813 12.307 9.1341 12.0283C9.05316 11.5515 8.73566 9.88009 7.96657 7.88411ZM10.0545 11.5297C11.2817 10.7027 12.1533 9.38955 12.3964 7.86849C12.2839 7.8323 10.7548 7.34889 8.99064 7.63132C9.70754 9.59861 9.99882 11.2008 10.0545 11.5297ZM8.17629 5.6959C8.30314 5.95617 8.42599 6.22107 8.53942 6.48729C8.57975 6.5828 8.61912 6.67643 8.65755 6.77003C10.5351 6.5341 12.3849 6.93106 12.464 6.94727C12.4515 5.65347 11.988 4.46604 11.2212 3.53642C11.2108 3.55105 10.3342 4.81586 8.17629 5.6959Z" fill="white"/>
</svg>
