<svg width="14" height="10" viewBox="0 0 14 10" fill="none" xmlns="http://www.w3.org/2000/svg">
<path fill-rule="evenodd" clip-rule="evenodd" d="M12.0014 0.887262C12.5521 1.0384 12.9859 1.48371 13.1331 2.04921C13.4006 3.07412 13.4006 5.2126 13.4006 5.2126C13.4006 5.2126 13.4006 7.35101 13.1331 8.37599C12.9859 8.9415 12.5521 9.3868 12.0013 9.53801C11.0032 9.81259 7.00055 9.81258 7.00055 9.81258C7.00055 9.81258 2.99786 9.81256 1.99968 9.53796C1.44891 9.38676 1.01517 8.94144 0.867971 8.37594C0.600557 7.35096 0.600566 5.21255 0.600566 5.21255C0.600566 5.21255 0.600575 3.07407 0.867998 2.04916C1.0152 1.48366 1.44895 1.03835 1.99971 0.887219C2.9979 0.612559 7.00059 0.612576 7.00059 0.612576C7.00059 0.612576 11.0033 0.612593 12.0014 0.887262ZM5.80059 3.41253L5.80057 7.41253L9.00058 5.41262L5.80059 3.41253Z" fill="white"/>
</svg>
